<?xml version="1.0" encoding="utf-8" ?>
<svg xmlns="http://www.w3.org/2000/svg" xmlns:xlink="http://www.w3.org/1999/xlink" width="228" height="128">
	<clipPath id="cl_4">
		<rect x="-0.00018978119" width="227.55554" height="128"/>
	</clipPath>
	<g clip-path="url(#cl_4)">
		<path transform="matrix(0.125 0 0 0.125 -14.2224 0)" d="M433.052 572.146C439.078 572.213 449.576 573.496 454.735 569.787C468.498 559.892 497.261 460.452 511.943 437.52C515.984 431.208 521.186 425.808 527.662 421.979C542.002 413.499 562.741 413.112 578.624 417.13C588.635 419.663 597.562 424.832 604.154 432.848C613.534 444.257 617.943 459.699 622.95 473.351L642.838 526.063C647.899 539.774 652.158 555.36 659.654 567.923C670.276 572.11 680.678 571.136 691.845 570.928C691.541 546.772 691.415 522.614 691.467 498.457C691.465 484.294 690.437 468.89 692.79 454.903C694.056 447.374 696.66 440.46 700.895 434.094C707.599 424.018 717.305 418.186 729.09 415.928C742.025 413.449 754.974 415.849 765.766 423.59C787.592 439.246 808.218 486.912 820.375 510.952C823.6 517.33 828.495 529.286 834.638 533.11C836.373 534.19 836.52 534.169 838.485 533.668C840.113 531.519 840.358 528.792 840.584 526.187C841.889 511.118 840.663 495.379 840.555 480.242C840.402 458.806 840.923 437.374 840.734 415.932L983.501 415.719C1006.29 415.605 1029.22 414.345 1051.99 415.442C1073.68 416.486 1097.08 419.138 1112.41 436.343C1125.24 450.743 1130.01 474.247 1119.74 491.328C1116.18 497.236 1104.43 505.174 1104.08 511.561C1106.56 516.762 1115.05 521.408 1119.26 525.771C1122.45 529.079 1125.2 535.654 1125.15 540.247C1128.06 543.336 1128.06 547.922 1128.1 551.945C1128.25 566.781 1122.09 580.592 1111.62 591.044C1102 600.65 1089.49 605.956 1076.37 608.784C1051.56 614.131 1024.84 611.64 999.589 611.414L917.173 611.347L916.964 495.226C944.611 494.641 972.513 494.972 1000.17 495.373C1013.47 495.565 1026.95 496.612 1040.22 495.879C1046.3 495.544 1052.98 494.995 1058.61 492.579C1063.16 490.63 1067.39 487.305 1069.16 482.54C1070.48 478.906 1070.29 474.891 1068.62 471.402C1066.25 466.427 1061.27 463.114 1056.2 461.363C1050.61 459.437 1044.28 458.9 1038.39 458.619C1014.8 457.489 990.545 458.788 966.897 458.786C947.867 458.785 928.403 457.398 909.433 458.016C906.24 458.121 903.287 458.375 900.367 459.749C893.488 466.975 897.454 534.188 897.414 548.177C897.363 565.847 897.408 585.432 883.723 598.735C875.073 607.142 861.241 612.133 849.302 611.8C819.612 610.971 804.603 580.512 791.952 558.144C784.477 544.954 777.168 531.669 770.028 518.295C766.166 511.131 761.883 501.189 756.153 495.386C754.501 493.714 753.825 493.489 751.555 493.509C746.709 498.79 748.121 594.127 748.122 610.962L618.042 610.917L617.743 610.064C614.965 602.15 610.15 583.509 601.763 580.148C589.45 575.212 527.629 575.739 515.278 580.85C507.609 584.024 502.194 603.567 499.286 611.098L391.046 611.32C370.329 587.692 351.194 562.09 331.379 537.671C326.094 542.947 320.907 548.25 315.935 553.824C316.2 572.911 316.227 592 316.015 611.088L256.474 611.092L256.399 415.139C276.193 414.561 296.192 415.117 316.005 415.141L315.863 491.28C339.013 466.175 361.482 440.371 384.498 415.124L454.638 415.248C428.516 444.172 400.481 471.451 373.752 499.833C395.089 522.649 411.822 549.461 433.052 572.146ZM1040.24 568.441C1049.56 567.543 1059.66 565.14 1065.83 557.473C1068.48 554.173 1069.91 550.001 1069.37 545.76C1068.81 541.308 1066.12 537.314 1062.56 534.661C1048.8 524.404 1014.29 527.284 997.36 528.563C989.066 528.721 981.87 529.578 975.799 536.046C972.853 539.184 971.278 543.239 971.484 547.548C971.733 552.739 974.419 557.745 978.246 561.189C989.806 571.592 1023.82 570.398 1039.17 568.65C1039.68 568.591 1039.8 568.55 1040.24 568.441ZM563.25 538.9C569.181 539.164 578.328 540.203 583.021 535.835C584.954 534.037 585.538 532.728 585.484 530.056C585.244 518.188 571.137 470.504 562.928 462.725C560.894 460.797 558.625 460.647 555.979 460.434C550.064 471.162 527.985 520.355 531.6 532.611C532.239 534.78 533.251 535.794 535.275 536.844C542.643 540.667 555.022 539.088 563.25 538.9Z"/>
		<path transform="matrix(0.125 0 0 0.125 -14.2224 0)" d="M1235.95 414.499C1242.92 414.093 1249.92 414.403 1256.83 415.426C1267.59 417.094 1280.57 421.515 1287.12 430.652C1291.44 436.674 1294.94 443.387 1298 450.118C1303.44 462.063 1343.65 561.115 1342.37 568.515L1430.55 568.769C1447.91 568.892 1466.41 570.426 1483.61 568.231C1489.61 567.466 1496.19 566.375 1500.65 561.981C1503.84 558.847 1505.81 554.511 1505.74 550.012C1505.68 546.242 1504.38 542.837 1501.62 540.212C1488.81 527.997 1446.31 532.942 1428.64 533.273C1407.7 533.665 1384.87 530.951 1369.16 515.489C1359.02 505.5 1353.63 488.989 1353.73 474.968C1353.83 460.117 1358.96 445.527 1369.76 435.062C1379.96 425.182 1393.47 419.788 1407.24 417.196C1437.84 411.435 1471.75 415.041 1502.89 415.164C1548.91 414.983 1594.92 415.041 1640.93 415.339C1648 424.854 1641.65 466.225 1643.09 480.24C1643.31 482.365 1643.42 484.164 1645.12 485.554C1648.08 485.357 1650.51 483.301 1652.68 481.453C1662.01 473.498 1710.01 424.129 1710.79 415.293L1784.27 415.405C1784.15 415.936 1784.17 415.943 1783.97 416.53C1781.75 423.034 1708.06 495.902 1698.99 500.625C1700.55 501.416 1701.84 502.468 1703.08 503.673C1714.31 514.523 1729.28 536.63 1739.52 549.682C1754.41 568.674 1771 586.909 1784.53 606.886C1785.61 608.485 1786.09 609.605 1786.12 611.588C1766.03 612.266 1745.85 611.863 1725.75 611.824C1723.13 611.904 1719.41 612.26 1716.96 611.225C1710.43 608.469 1674.13 549.278 1660.86 544.059C1652.89 544.522 1648.98 551.562 1642.91 555.698C1642.72 555.821 1642.54 555.94 1642.36 556.06C1642.82 557.041 1643.1 558.026 1643.32 559.087C1645.01 567.529 1644.87 605.67 1641.03 611.634C1621.06 612.508 1600.54 612.082 1580.55 611.579C1581.8 609.27 1582.28 607.009 1582.57 604.431C1585.05 581.902 1582.9 558.271 1582.77 535.609C1582.65 513.378 1584.31 489.947 1582.18 467.871C1581.95 465.517 1581.46 463.737 1579.95 461.844C1577.31 460.216 1574.24 460 1571.21 459.829C1543.49 458.27 1515.15 459.813 1487.35 459.894C1472.87 459.936 1458.43 458.459 1444 458.681C1435.04 458.818 1422.85 459.549 1416.38 466.502C1413.69 469.389 1412.59 473.027 1412.73 476.934C1414.11 516.081 1516.12 477.907 1550.7 511.803C1560.66 521.568 1565.37 536.262 1565.47 550.024C1565.57 564.499 1560.14 580.341 1549.85 590.641C1539.52 600.982 1526.07 606.879 1511.88 609.72C1486.18 614.862 1458.27 612.003 1432.16 611.951L1299.83 611.867C1300.26 610.974 1300.45 610.335 1300.49 609.324C1300.81 601.983 1294.47 588.702 1289.22 583.6C1281.82 576.397 1256.55 577.685 1246.3 577.663C1234.3 577.637 1206.57 575.751 1197.48 584.011C1193.77 587.379 1192.71 592.219 1191.39 596.833C1189.9 602.005 1188.72 607.136 1184.71 610.998C1184.54 611.156 1184.37 611.306 1184.2 611.46C1170.51 613.91 1136.93 611.806 1121.18 611.637C1132.19 602.975 1167.21 504.63 1174.7 484.802C1181.04 468.025 1186.44 448.216 1196.99 433.647C1206.28 420.81 1221.15 416.963 1235.95 414.499ZM1244.99 538.558C1252.89 538.625 1265 539.985 1271.06 533.941C1271.88 533.131 1271.83 531.786 1271.82 530.674C1271.68 519.811 1254.12 469.688 1246.08 462.73C1244 460.934 1242.01 461.406 1239.51 461.496L1239.33 462.106C1235.36 474.934 1211.45 521.562 1216.68 532.424C1217.92 534.996 1221.01 536.394 1223.66 537.137C1230.29 538.997 1238.12 538.56 1244.99 538.558Z"/>
	</g>
</svg>
